<svg width="50" height="50" viewBox="0 0 50 50" fill="none" xmlns="http://www.w3.org/2000/svg">
<path d="M25 21.1758C27.111 21.1758 28.8289 22.8929 28.8291 25.0039C28.8291 27.115 27.1112 28.833 25 28.833C22.8889 28.8329 21.1709 27.115 21.1709 25.0039C21.1711 22.893 22.889 21.1758 25 21.1758Z" fill="black"/>
<path fill-rule="evenodd" clip-rule="evenodd" d="M30.2422 15.46C32.5778 15.4602 34.496 17.3702 34.4961 19.7139V30.2939C34.496 32.6296 32.5778 34.5476 30.2422 34.5479H19.7666C17.4227 34.5479 15.5118 32.6298 15.5117 30.2939V19.7139C15.5118 17.37 17.4227 15.46 19.7666 15.46H30.2422ZM25 19.2168C21.8134 19.2169 19.2209 21.8173 19.2207 25.0039C19.2207 28.1906 21.8132 30.7841 25 30.7842C28.1868 30.7842 30.7881 28.1907 30.7881 25.0039C30.7879 21.8173 28.1867 19.2168 25 19.2168ZM30.792 17.4072C30.1418 17.4072 29.6123 17.9375 29.6123 18.5957C29.6123 19.2459 30.1418 19.7754 30.792 19.7754C31.4502 19.7753 31.9795 19.2459 31.9795 18.5957C31.9795 17.9375 31.4502 17.4073 30.792 17.4072Z" fill="black"/>
<path fill-rule="evenodd" clip-rule="evenodd" d="M25 2C37.7024 2 48 12.2976 48 25C47.9999 37.7024 37.7024 48 25 48C12.2976 48 2.0001 37.7023 2 25C2 12.2976 12.2976 2.00003 25 2ZM18.5703 13.2764C15.6966 13.2764 13.3447 15.6282 13.3447 18.502V31.498C13.3448 34.3717 15.6966 36.7236 18.5703 36.7236H31.4297C34.3034 36.7236 36.6552 34.3717 36.6553 31.498V18.502C36.6553 15.6282 34.3034 13.2764 31.4297 13.2764H18.5703Z" fill="black"/>
</svg>
