<svg width="98" height="48" viewBox="0 0 98 48" fill="none" xmlns="http://www.w3.org/2000/svg">
<path d="M36.2284 0C37.2656 0 37.6288 0.101141 37.6288 0.389648C37.6288 0.603825 37.8279 0.779288 38.0711 0.779297C39.0333 0.779297 39.0386 3.68672 38.077 3.99512C37.831 4.07403 37.6289 4.31729 37.6288 4.53613C37.6288 4.75479 37.4187 4.93359 37.162 4.93359C36.9375 4.93368 36.7487 5.06817 36.7049 5.24512L36.6854 5.40137C36.648 5.55333 36.5042 5.67386 36.3221 5.70508L36.1346 5.7207C35.9225 5.75724 35.7616 5.91514 35.7616 6.10254C35.7616 6.29009 35.6009 6.448 35.3885 6.48438L35.201 6.5C34.9889 6.53656 34.828 6.69445 34.828 6.88184C34.8278 7.09597 34.6178 7.27148 34.3612 7.27148C34.1048 7.2716 33.8947 7.42026 33.8944 7.60254C33.8944 7.7851 33.6146 8.13526 33.2723 8.37988C32.9302 8.62445 32.6504 9.05881 32.6502 9.3457C32.6502 9.63643 32.4435 9.86798 32.1835 9.86816C31.9267 9.86816 31.7167 10.0436 31.7167 10.2578C31.7164 10.4718 31.5063 10.6473 31.2499 10.6475C30.9415 10.6475 30.7831 10.9043 30.7831 11.4053C30.7831 12.0368 30.6266 12.1924 29.8495 12.335C29.1641 12.4606 28.9142 12.6558 28.911 13.0693C28.9038 14.0417 28.5488 14.8016 28.1014 14.8018C27.8649 14.8018 27.6708 14.9856 27.6708 15.21C27.6707 15.4346 27.4607 15.7936 27.204 16.0078C26.9474 16.222 26.7374 16.6223 26.7372 16.8975C26.7372 17.173 26.5271 17.3984 26.2704 17.3984C25.9593 17.3985 25.8036 17.6585 25.8036 18.1777C25.8036 18.6971 25.648 18.957 25.3368 18.957C24.9912 18.9571 24.87 19.26 24.87 20.125C24.87 20.9905 24.7489 21.2939 24.4032 21.2939C24.1466 21.2941 23.9364 21.5195 23.9364 21.7949C23.9364 22.0702 23.7436 22.4565 23.5077 22.6533C23.2718 22.8502 22.9803 23.3846 22.8602 23.8408C22.7398 24.2986 22.444 24.6699 22.2001 24.6699C21.8637 24.6703 21.7587 25.0728 21.7586 26.3574C21.7586 27.6212 21.8662 28.0456 22.1883 28.0459C22.7469 28.0459 22.9936 28.8557 22.9989 30.708C23.0023 31.8598 23.1095 32.201 23.4696 32.2012C23.7262 32.2012 23.9362 32.366 23.9364 32.5684C23.9364 32.7707 24.0861 32.9777 24.2684 33.0283C24.4504 33.0794 24.6782 33.6152 24.7753 34.2188C24.8854 34.9025 25.1124 35.3171 25.3778 35.3174C25.6569 35.3174 25.8035 35.6297 25.8036 36.2256C25.8036 36.961 25.9222 37.1347 26.4256 37.1348C26.7714 37.1348 27.0487 37.3081 27.0487 37.5244C27.0488 37.7384 27.1883 37.9137 27.3592 37.9141C27.5303 37.9141 27.6706 38.0753 27.6708 38.2725C27.6708 38.47 27.9507 38.6937 28.2928 38.7686C28.7048 38.8584 28.9159 39.1226 28.9159 39.5498C28.916 39.9049 29.126 40.2624 29.3827 40.3447C29.6392 40.4268 29.8492 40.6728 29.8495 40.8916C29.8495 41.1103 30.0595 41.29 30.3163 41.29C30.5727 41.2902 30.7828 41.4647 30.7831 41.6787C30.7831 41.9384 31.0943 42.0684 31.7167 42.0684C32.3387 42.0684 32.6501 42.1985 32.6502 42.458C32.6502 42.6722 32.8065 42.8477 32.9979 42.8477C33.189 42.8478 33.889 43.3012 34.5536 43.8555C35.5656 44.7002 35.7616 45.0379 35.7616 45.9336C35.7615 46.7108 35.6339 47.0029 35.2948 47.0029C35.0382 47.003 34.828 47.1691 34.828 47.3721C34.8274 47.5748 34.3965 47.8195 33.87 47.916C32.5562 48.1568 30.784 47.8493 30.7831 47.3809C30.7831 47.1731 30.5023 47.0029 30.16 47.0029C29.8146 47.0028 29.5381 46.8294 29.5379 46.6133C29.5379 46.4258 29.3772 46.2679 29.1649 46.2314L28.9774 46.2158C28.7955 46.1845 28.6515 46.064 28.6141 45.9121L28.5946 45.7559C28.5506 45.5788 28.3609 45.4444 28.1346 45.4443C27.8763 45.4443 27.4248 45.2105 27.1317 44.9248C26.8386 44.6393 26.4197 44.4062 26.201 44.4062C25.9825 44.4059 25.8036 44.1136 25.8036 43.7568C25.8036 43.3528 25.6271 43.1074 25.3368 43.1074C25.0776 43.1073 24.87 42.8763 24.87 42.5879C24.8699 42.2994 24.6624 42.0684 24.4032 42.0684C24.1465 42.0683 23.9364 41.9188 23.9364 41.7363C23.936 41.5765 23.7219 41.2896 23.4393 41.0566L23.1893 40.8633C22.9064 40.627 22.6922 40.3265 22.6922 40.1514C22.6922 39.951 22.482 39.7201 22.2254 39.6377C21.9526 39.5505 21.7587 39.1612 21.7586 38.7012C21.7586 38.1747 21.6037 37.9143 21.2919 37.9141C20.9807 37.9141 20.8251 37.6541 20.8251 37.1348C20.8251 36.6156 20.6692 36.3557 20.3583 36.3555C20.1015 36.3555 19.8915 36.13 19.8915 35.8545C19.8914 35.5793 19.6985 35.1929 19.4628 34.9961C19.2269 34.7993 18.9354 34.2649 18.8153 33.8086C18.5775 32.9047 18.0244 32.6753 18.0243 33.4805C18.0243 33.7556 17.8179 34.1531 17.5663 34.3633C17.3143 34.5736 17.0128 35.254 16.8963 35.875C16.78 36.4959 16.5557 37.0752 16.3973 37.1621C16.2392 37.2486 16.0313 37.8037 15.9364 38.3955C15.829 39.0626 15.602 39.4717 15.3378 39.4717C15.0344 39.4717 14.912 39.845 14.912 40.7705C14.9119 41.7514 14.7977 42.0684 14.4452 42.0684C14.1332 42.0684 13.9784 42.3291 13.9784 42.8555C13.9784 43.3006 13.7842 43.7048 13.5311 43.7861C13.285 43.8651 12.9932 44.2707 12.8836 44.6875C12.7738 45.1039 12.485 45.4443 12.242 45.4443C11.9989 45.4445 11.8007 45.6199 11.8006 45.834C11.8006 46.0481 11.5904 46.2234 11.3338 46.2236C11.0771 46.2236 10.867 46.3838 10.867 46.5791C10.8667 46.8005 10.37 46.9901 9.55064 47.082C8.82753 47.163 8.18642 47.3531 8.12486 47.5049C8.06418 47.6571 7.32565 47.7812 6.48424 47.7812C5.33213 47.7812 4.95432 47.6857 4.95396 47.3926C4.95396 47.1051 4.5934 47.0029 3.57799 47.0029C2.30301 47.0029 2.18802 46.9459 1.99791 46.2236C1.88526 45.7952 1.59349 45.4443 1.35045 45.4443C1.06441 45.4441 0.908145 45.163 0.908063 44.6475C0.908063 44.2086 0.689004 43.6662 0.420759 43.4424C0.0100661 43.0996 -0.0509952 42.3839 0.0320867 38.9062C0.091322 36.427 0.234896 34.909 0.43443 34.6318L0.514509 34.5537C0.713889 34.268 0.889485 32.6581 0.991071 30.1533C1.0891 27.7429 1.30002 25.8277 1.4774 25.7363C1.64978 25.6462 1.89139 24.2889 2.01549 22.7197C2.14146 21.1209 2.3923 19.7858 2.5858 19.6807C2.78216 19.5752 2.97828 18.4837 3.0399 17.1484C3.1233 15.3532 3.25155 14.8018 3.58482 14.8018C3.93305 14.8013 4.02037 14.2016 4.02037 11.8154C4.02037 9.33415 4.09948 8.82915 4.48716 8.8291C4.82424 8.8291 4.92917 8.46484 4.95006 6.86621L4.95787 5.33887C4.97875 3.74032 5.08371 3.376 5.42076 3.37598C5.77334 3.37598 5.88756 3.05823 5.88756 2.07715C5.88757 0.952456 5.97068 0.779368 6.50963 0.779297C6.85529 0.779297 7.13257 0.605907 7.13267 0.389648C7.13267 0.152074 7.42259 4.54871e-05 7.87681 0C8.28633 0 8.70198 0.175415 8.80064 0.389648C8.9052 0.617391 9.37226 0.779297 9.92369 0.779297H10.867V3.24609C10.867 5.26513 10.782 5.71257 10.4003 5.71289C10.0138 5.71289 9.93346 6.20354 9.93345 8.56934C9.93345 10.7878 9.86244 11.3575 9.53502 11.4199L9.3983 11.4316C9.07394 11.4878 8.99986 11.997 8.99986 13.8799C8.99986 15.72 8.88933 16.3864 8.56041 16.542C8.23482 16.6969 8.09548 17.5022 8.01646 19.6807C7.94987 21.5236 7.77692 22.6808 7.55162 22.7969C7.32854 22.9122 7.15204 24.0408 7.08482 25.7832C7.01729 27.5319 6.84142 28.6549 6.61705 28.7705C6.39149 28.8872 6.17263 30.3121 6.03013 32.5908C5.90503 34.5902 5.67086 36.2966 5.5106 36.3828C5.00972 36.6542 5.07576 39.4721 5.5897 39.748C5.89974 39.9144 5.93629 40.0524 5.70494 40.1855C5.23255 40.4574 4.94259 41.5495 5.15513 42.2559C5.30668 42.7594 5.53648 42.8477 6.69908 42.8477C7.7064 42.8477 8.06627 42.7452 8.06627 42.458C8.06634 42.2439 8.1898 42.0684 8.34068 42.0684C8.49192 42.0684 8.68856 41.8345 8.77818 41.5488C8.86762 41.2633 9.16486 41.0303 9.43736 41.0303C9.81736 41.0301 9.93345 40.7572 9.93345 39.8613C9.93346 38.9958 10.0545 38.6924 10.4003 38.6924C10.745 38.6921 10.867 38.3909 10.867 37.5371C10.8671 36.8433 11.0343 36.2985 11.286 36.1738C11.5169 36.0596 11.7918 35.5079 11.8973 34.9482C12.0028 34.3884 12.2394 33.8533 12.4227 33.7588C12.606 33.6641 12.8416 33.129 12.9471 32.5693C13.0526 32.0097 13.3285 31.458 13.5594 31.3438C13.811 31.2188 13.9784 30.674 13.9784 29.9805C13.9784 29.1265 14.1002 28.8253 14.4452 28.8252C14.7978 28.8252 14.912 28.5075 14.912 27.5264C14.912 26.6009 15.0344 26.2276 15.3378 26.2275C15.6032 26.2275 15.8301 25.8139 15.9403 25.1299C16.0374 24.5259 16.2661 23.9901 16.4481 23.9395C16.6303 23.8887 16.7792 23.6817 16.7792 23.4795C16.7793 23.2771 16.981 23.1113 17.2274 23.1113C17.5222 23.111 17.7494 22.6939 17.8944 21.8867C18.0154 21.2134 18.3045 20.5044 18.536 20.3105C18.7678 20.1171 18.9578 19.7333 18.9579 19.458C18.9579 19.1825 19.1679 18.957 19.4247 18.957C19.7356 18.9569 19.8915 18.6969 19.8915 18.1777C19.8915 17.6584 20.0471 17.3984 20.3583 17.3984C20.6148 17.3982 20.8251 17.1729 20.8251 16.8975C20.8252 16.6222 21.018 16.2358 21.2538 16.0391C21.4895 15.8421 21.7811 15.3085 21.9012 14.8525C22.021 14.3965 22.2366 14.0225 22.3807 14.0225C22.5248 14.0224 22.7318 13.6821 22.8417 13.2656C22.9512 12.8488 23.243 12.4442 23.4891 12.3652C23.7423 12.2841 23.9363 11.8796 23.9364 11.4346C23.9364 10.7332 24.038 10.6475 24.87 10.6475C25.6998 10.6475 25.8036 10.5606 25.8036 9.86816C25.8036 9.34889 25.9593 9.08896 26.2704 9.08887C26.5816 9.08887 26.7372 8.82894 26.7372 8.30957C26.7372 7.85086 26.9006 7.53161 27.1346 7.53125C27.6481 7.53125 28.6044 6.5995 28.6044 6.09961C28.6044 5.88628 28.8831 5.71303 29.2264 5.71289C29.7066 5.71289 29.8495 5.53943 29.8495 4.9541C29.8495 4.32288 30.0059 4.16793 30.7831 4.02539C31.5602 3.88284 31.7167 3.72718 31.7167 3.0957C31.7167 2.67867 31.8562 2.33737 32.0272 2.33691C32.1984 2.33691 32.6185 2.10303 32.9608 1.81738C33.3028 1.53195 33.5834 1.1821 33.5838 1.03906C33.5838 0.896237 33.8636 0.779297 34.2059 0.779297C34.5516 0.779284 34.8279 0.605899 34.828 0.389648C34.828 0.101163 35.1914 1.56043e-05 36.2284 0Z" fill="black"/>
<path fill-rule="evenodd" clip-rule="evenodd" d="M88.6639 17.3984C89.5192 17.3984 90.2197 17.5061 90.2206 17.6377C90.2206 17.7691 90.6259 17.9511 91.1219 18.042C92.0319 18.2087 92.3857 18.7338 92.3944 19.9307C92.3969 20.2522 92.5387 20.5146 92.7098 20.5146C93.126 20.5154 93.111 23.0428 92.6942 23.1592C92.5146 23.2093 92.2839 24.3295 92.1815 25.6484C92.021 27.7187 92.0617 28.0458 92.4833 28.0459C92.7789 28.0459 93.0571 28.3725 93.1893 28.875C93.3094 29.3313 93.6009 29.8657 93.8368 30.0625C94.0724 30.2592 94.2652 30.5742 94.2655 30.7627C94.2655 30.9515 94.4756 31.1735 94.7323 31.2559C95.0051 31.3431 95.199 31.7323 95.1991 32.1924C95.1991 32.719 95.3538 32.9795 95.6659 32.9795C95.9771 32.9795 96.1327 33.2394 96.1327 33.7588C96.1327 34.2504 96.2924 34.5381 96.5653 34.5381C96.8125 34.5384 97.084 34.9261 97.201 35.4463C97.3134 35.9462 97.5396 36.3555 97.703 36.3555C97.8737 36.3569 97.9998 37.5721 97.9999 39.2119C97.9999 40.8519 97.8737 42.0669 97.703 42.0684C97.5396 42.0684 97.3134 42.4776 97.201 42.9775C97.0841 43.498 96.8126 43.8864 96.5653 43.8867C96.2925 43.8867 96.1328 44.1737 96.1327 44.665C96.1327 45.1844 95.9771 45.4443 95.6659 45.4443C95.4092 45.4444 95.1991 45.6198 95.1991 45.834C95.1991 46.0503 94.9226 46.2236 94.577 46.2236C94.2347 46.2236 93.954 46.3838 93.954 46.5791C93.9536 46.7995 93.464 46.9895 92.6649 47.0791C91.9557 47.1583 91.29 47.3362 91.1864 47.4746C90.9794 47.7495 89.4135 47.8747 86.8749 47.8184C85.65 47.7911 85.2415 47.6844 85.2411 47.3926C85.2411 47.1329 84.9299 47.0029 84.3075 47.0029C83.6852 47.0029 83.374 46.8729 83.3739 46.6133C83.3739 46.3412 83.0454 46.2237 82.285 46.2236C81.2478 46.2236 81.1952 46.18 81.1952 45.3145C81.1951 44.68 81.0545 44.4062 80.7284 44.4062C80.4175 44.406 80.2616 44.146 80.2616 43.627C80.2616 43.1078 80.4175 42.8479 80.7284 42.8477C80.9851 42.8477 81.1952 42.6722 81.1952 42.458C81.1953 42.186 81.5246 42.0684 82.285 42.0684C83.0454 42.0683 83.3739 41.9508 83.3739 41.6787C83.3741 41.4647 83.5144 41.29 83.6854 41.29C83.8563 41.2902 83.9958 41.4648 83.996 41.6787C83.996 41.8681 84.2083 42.0245 84.493 42.0605L84.745 42.0762C85.0293 42.1123 85.2409 42.2689 85.2411 42.458C85.2411 42.7769 85.7769 42.8477 88.1971 42.8477C90.6176 42.8477 91.1542 42.7769 91.1542 42.458C91.1543 42.2439 91.3643 42.0684 91.621 42.0684C91.8775 42.0681 92.0868 41.8928 92.0868 41.6787C92.0871 41.4648 92.2972 41.2902 92.5536 41.29C92.9205 41.29 93.0204 40.9288 93.0204 39.6016C93.0204 38.2744 92.9205 37.9141 92.5536 37.9141C92.2082 37.9138 92.0868 37.6103 92.0868 36.7451C92.0868 35.88 91.9663 35.5765 91.621 35.5762C91.3098 35.5762 91.1542 35.317 91.1542 34.7979C91.1542 34.2787 90.9982 34.0188 90.6874 34.0186C90.4281 34.0186 90.2206 33.7875 90.2206 33.499C90.2205 33.2107 90.0128 32.9798 89.7538 32.9795C89.497 32.9795 89.287 32.8041 89.287 32.5898C89.2867 31.8497 88.4019 32.2031 88.1844 33.0303C88.0643 33.4864 87.7728 34.0199 87.537 34.2168C87.3011 34.4136 87.1083 34.7294 87.1083 34.918C87.1083 35.1068 86.8982 35.3288 86.6415 35.4111C86.3848 35.4932 86.1747 35.7391 86.1747 35.958C86.1747 36.1493 86.0138 36.3104 85.8016 36.3477L85.6141 36.3633C85.4322 36.3945 85.2883 36.5152 85.2508 36.667L85.2313 36.8232C85.1876 37.0004 84.999 37.1348 84.7743 37.1348C84.4622 37.1348 84.3075 37.3952 84.3075 37.9219C84.3075 38.382 84.1136 38.7711 83.8407 38.8584C83.584 38.9407 83.3739 39.1712 83.3739 39.3701C83.3737 39.5689 83.1785 39.7314 82.9403 39.7314C82.702 39.7315 82.4266 39.9069 82.328 40.1211C82.2297 40.3353 81.9341 40.5107 81.6717 40.5107C81.4098 40.5109 81.1952 40.6862 81.1952 40.9004C81.195 41.1145 80.985 41.29 80.7284 41.29C80.472 41.2902 80.2619 41.4648 80.2616 41.6787C80.2616 41.8663 80.1009 42.0242 79.8885 42.0605L79.701 42.0762C79.4891 42.1108 79.3281 42.26 79.328 42.4375C79.328 42.6403 78.921 42.8805 78.4237 42.9717C77.8077 43.0846 77.4587 43.3424 77.327 43.7793C77.1923 44.2267 76.853 44.4687 76.2079 44.5762C75.6992 44.6611 75.2831 44.8916 75.2831 45.0879C75.2826 45.3112 74.9338 45.4443 74.3495 45.4443C73.7272 45.4443 73.4159 45.5744 73.4159 45.834C73.4159 46.1061 73.0873 46.2236 72.327 46.2236C71.5665 46.2236 71.2372 46.3411 71.2372 46.6133C71.237 46.9021 70.8733 47.0029 69.828 47.0029C68.8614 47.0029 68.3608 47.1256 68.2381 47.3926C68.1009 47.6899 67.5156 47.7812 65.7587 47.7812C63.9219 47.7812 63.4583 47.7033 63.4579 47.3926C63.4579 47.1329 63.1466 47.0029 62.5243 47.0029C61.9407 47.0029 61.631 46.8884 61.5946 46.6602L61.5868 46.5664C61.5554 46.3683 61.3186 46.2559 60.8758 46.2295L60.4383 46.2178C59.9618 46.1894 59.7235 46.0612 59.7235 45.834C59.7234 45.6178 59.447 45.4444 59.1014 45.4443C58.6172 45.4443 58.4784 45.2709 58.4784 44.665C58.4783 44.146 58.3227 43.8867 58.0116 43.8867C57.7525 43.8865 57.5448 43.6555 57.5448 43.3672C57.5448 43.0788 57.7525 42.8479 58.0116 42.8477C58.3228 42.8477 58.4784 42.5877 58.4784 42.0684C58.4782 41.1057 57.6972 41.0102 57.4178 41.9385C57.165 42.7766 53.9208 45.4443 53.1542 45.4443C52.8306 45.4444 52.5663 45.6198 52.5663 45.834C52.5663 46.0502 52.2897 46.2235 51.9442 46.2236C51.6019 46.2236 51.3211 46.3845 51.3211 46.5811C51.3209 46.8282 50.7744 46.9766 49.5477 47.0615C48.5728 47.129 47.7204 47.3181 47.6542 47.4824C47.4703 47.9425 43.913 47.8684 43.3417 47.3926C43.0849 47.1783 42.3244 47.0029 41.6522 47.0029C40.773 47.0029 40.4297 46.8933 40.4295 46.6133C40.4295 46.371 40.1354 46.2236 39.6512 46.2236C39.1673 46.2235 38.8739 46.0762 38.8739 45.834C38.8738 45.6198 38.6748 45.4443 38.4315 45.4443C38.1885 45.4443 37.8977 45.0935 37.785 44.665C37.6723 44.2367 37.3805 43.8867 37.1376 43.8867C36.8398 43.8867 36.6952 43.5896 36.6952 42.9775C36.6952 42.3429 36.5545 42.0684 36.2284 42.0684C35.8869 42.0682 35.7474 41.7379 35.7079 40.835C35.678 40.1564 35.6207 39.1922 35.5809 38.6924C35.5408 38.192 35.5856 36.5273 35.6795 34.9922C35.8086 32.8852 35.9537 32.2019 36.2723 32.2012C36.5658 32.2012 36.6952 31.8434 36.6952 31.0322C36.6952 30.1669 36.8164 29.8634 37.162 29.8633C37.5145 29.8633 37.6287 29.5463 37.6288 28.5654C37.6288 27.5845 37.7431 27.2667 38.0956 27.2666C38.4217 27.2666 38.5624 26.9921 38.5624 26.3574C38.5624 25.7456 38.707 25.4492 39.0047 25.4492C39.2478 25.4492 39.5385 25.0983 39.6512 24.6699C39.7639 24.2414 39.986 23.8906 40.1434 23.8906C40.301 23.8904 40.4295 23.7151 40.4295 23.501C40.4299 23.1954 40.8609 23.1113 42.4383 23.1113H44.4471L44.6551 24.0371C44.9127 25.1838 44.6401 27.0198 44.1766 27.2598C43.9865 27.3579 43.744 27.8962 43.6385 28.4561C43.533 29.0157 43.2581 29.5674 43.0272 29.6816C42.7756 29.8064 42.6083 30.3513 42.6083 31.0449C42.6083 31.8988 42.4864 32.201 42.1415 32.2012C41.8154 32.2012 41.6747 32.4749 41.6747 33.1094C41.6747 33.7439 41.5338 34.0184 41.2079 34.0186C40.8179 34.0186 40.7411 34.5525 40.7411 37.2646C40.7411 39.9767 40.818 40.5107 41.2079 40.5107C41.5189 40.5109 41.6747 40.7708 41.6747 41.29C41.6747 41.8091 41.8304 42.0684 42.1415 42.0684C42.398 42.0685 42.6081 42.2439 42.6083 42.458C42.6083 42.8382 43.0866 42.9149 45.5643 42.9297C47.8755 42.9435 48.5204 42.8403 48.5204 42.458C48.5205 42.1985 48.8319 42.0684 49.454 42.0684C50.0763 42.0684 50.3876 41.9384 50.3876 41.6787C50.3879 41.4647 50.611 41.2901 50.8836 41.29C51.1221 41.29 51.3795 41.111 51.4999 40.875L51.5838 40.666C51.6982 40.4299 51.9284 40.251 52.1356 40.251C52.3721 40.251 52.5663 40.0756 52.5663 39.8613C52.5663 39.6738 52.727 39.5159 52.9393 39.4795L53.1268 39.4639C53.3088 39.4325 53.4528 39.3121 53.4901 39.1602L53.5096 39.0039C53.5535 38.827 53.7421 38.6924 53.9667 38.6924C54.2231 38.6923 54.4332 38.5177 54.4335 38.3037C54.4335 38.0895 54.6325 37.9141 54.8758 37.9141C55.1188 37.9137 55.4067 37.5726 55.5165 37.1562C55.626 36.7395 55.9178 36.3348 56.1639 36.2559C56.4099 36.1769 56.611 35.9336 56.6112 35.7148C56.6112 35.4963 56.8214 35.3176 57.078 35.3174C57.3891 35.3174 57.5447 35.0573 57.5448 34.5381C57.5448 34.0838 57.6641 33.8274 57.9022 33.7705L58.121 33.7471C58.3595 33.6905 58.4784 33.4342 58.4784 32.9795C58.4784 32.4605 58.6342 32.2014 58.9452 32.2012C59.2019 32.2012 59.412 32.0214 59.412 31.8027C59.4122 31.584 59.6223 31.3379 59.8788 31.2559C60.1355 31.1735 60.3456 30.8227 60.3456 30.4766C60.3457 30.1303 60.5436 29.7844 60.785 29.707C61.0261 29.6297 61.3169 29.2547 61.4315 28.874C61.546 28.4929 61.8034 28.0955 62.0038 27.9912C62.4774 27.7453 62.4136 24.0768 61.9335 23.9434C61.4993 23.8212 61.4691 20.5146 61.9022 20.5146C62.0732 20.5142 62.2151 20.2519 62.2176 19.9307C62.2263 18.7339 62.5794 18.2088 63.4891 18.042C63.9852 17.9511 64.3915 17.7691 64.3915 17.6377C64.3922 17.5062 65.0202 17.3985 65.7879 17.3984C67.2073 17.3984 68.4364 17.9677 68.4364 18.625C68.4364 18.8075 68.6466 18.9569 68.9032 18.957C69.2931 18.957 69.37 19.491 69.37 22.2031C69.37 24.9151 69.2931 25.4492 68.9032 25.4492C68.5924 25.4494 68.4365 25.7087 68.4364 26.2275C68.4364 26.7467 68.5923 27.0066 68.9032 27.0068C69.1624 27.0068 69.37 27.2379 69.37 27.5264C69.37 27.8147 69.5777 28.0457 69.8368 28.0459C70.0935 28.0459 70.3036 28.2247 70.3036 28.4434C70.3036 28.6622 70.5138 28.908 70.7704 28.9902C71.027 29.0725 71.2401 29.3902 71.243 29.6963C71.2486 30.273 72.4656 31.4219 73.0712 31.4219C73.2725 31.4226 73.4158 31.9081 73.4159 32.5898C73.4159 33.4554 73.5369 33.7588 73.8827 33.7588C74.1938 33.7588 74.3495 34.0187 74.3495 34.5381C74.3495 35.0573 74.5051 35.3174 74.8163 35.3174C75.1831 35.3174 75.2831 35.6777 75.2831 37.0049V38.6924H76.1922C76.9487 38.6924 77.1347 38.5624 77.3055 37.9141C77.4764 37.2654 77.663 37.1348 78.4198 37.1348C79.2221 37.1347 79.328 37.0433 79.328 36.3555C79.328 35.8365 79.4839 35.5764 79.7948 35.5762C80.0539 35.5762 80.2614 35.3459 80.2616 35.0576C80.2616 34.7721 80.4607 34.5383 80.704 34.5381C80.947 34.5381 81.2388 34.1873 81.3514 33.7588C81.4641 33.3303 81.6852 32.9795 81.8426 32.9795C82.0004 32.9794 82.1288 32.8041 82.1288 32.5898C82.1291 32.3737 82.4063 32.2012 82.7518 32.2012C83.2305 32.2011 83.3739 32.0272 83.3739 31.4492C83.374 31.0211 83.5747 30.6341 83.8407 30.5488C84.0973 30.4668 84.3073 30.1038 84.3075 29.7422C84.3075 29.3311 84.4824 29.085 84.7743 29.085C85.1527 29.085 85.2411 28.6659 85.2411 26.877C85.2411 25.0882 85.1527 24.6699 84.7743 24.6699C84.3922 24.6699 84.3075 24.2227 84.3075 22.2031C84.3075 20.1833 84.3921 19.7363 84.7743 19.7363C85.0826 19.7363 85.241 19.4786 85.2411 18.9775C85.2411 18.346 85.3973 18.1904 86.1747 18.0479C86.6881 17.9538 87.1083 17.7691 87.1083 17.6377C87.1091 17.5062 87.8088 17.3985 88.6639 17.3984ZM66.2587 31.8115C66.2587 31.1161 65.691 31.4003 65.4803 32.2012C65.3676 32.6292 65.0767 32.9792 64.8338 32.9795C64.55 32.9795 64.3915 33.2589 64.3915 33.7588C64.3915 34.2781 64.2358 34.538 63.9247 34.5381C63.6654 34.5381 63.4579 34.7691 63.4579 35.0576C63.4577 35.3459 63.2501 35.5761 62.9911 35.5762C62.6799 35.5762 62.5243 35.8362 62.5243 36.3555C62.5243 36.8478 62.3645 37.1348 62.0907 37.1348C61.8527 37.135 61.5652 37.443 61.452 37.8193C61.3387 38.1961 60.8331 38.8065 60.329 39.1758C59.727 39.6164 59.412 40.0951 59.412 40.5684C59.412 41.2607 59.4749 41.29 60.9686 41.29C62.1434 41.2901 62.5239 41.3849 62.5243 41.6787C62.5243 41.8662 62.6851 42.0241 62.8973 42.0605L63.0848 42.0762C63.2969 42.1126 63.4578 42.2706 63.4579 42.458C63.4579 42.7694 63.9221 42.8477 65.7674 42.8477H68.076L68.2811 42.0684C68.3938 41.64 68.6856 41.29 68.9286 41.29C69.1717 41.2898 69.3699 41.0559 69.37 40.7705C69.37 40.4821 69.5777 40.2512 69.8368 40.251C70.1999 40.251 70.3036 39.9043 70.3036 38.6924C70.3036 37.4808 70.1999 37.1348 69.8368 37.1348C69.5345 37.1346 69.4037 36.9024 69.3758 36.2646L69.3641 35.667C69.3362 35.0295 69.2056 34.7979 68.9032 34.7979C68.6442 34.7976 68.4365 34.5666 68.4364 34.2783C68.4364 33.9898 68.2288 33.7588 67.9696 33.7588C67.6587 33.7586 67.5028 33.4986 67.5028 32.9795C67.5028 32.3739 67.3649 32.2012 66.8807 32.2012C66.5352 32.2011 66.2589 32.0277 66.2587 31.8115Z" fill="black"/>
<path d="M45.7977 15.585C48.1463 15.5912 48.4255 15.7444 48.6493 17.1514C48.8872 18.6497 48.623 19.7362 48.0204 19.7363C47.7821 19.7363 47.587 19.8957 47.5868 20.0908C47.5868 20.4936 45.6495 20.7906 44.3612 20.585C43.7015 20.4798 43.5419 20.3078 43.5419 19.7051C43.5417 19.2937 43.4014 18.957 43.2303 18.957C43.0592 18.957 42.9188 18.7231 42.9188 18.4375C42.9188 18.1519 43.0592 17.918 43.2303 17.918C43.4015 17.918 43.5419 17.5671 43.5419 17.1387C43.5419 16.6196 43.6975 16.3604 44.0086 16.3604C44.2652 16.3602 44.4753 16.1848 44.4754 15.9707C44.4754 15.6851 44.8277 15.5824 45.7977 15.585Z" fill="black"/>
<path d="M65.4764 6.69531C65.7368 6.69531 65.9712 6.72917 66.1796 6.79688C66.3879 6.86458 66.565 6.95833 66.7108 7.07812C66.8566 7.19792 66.9686 7.33854 67.0467 7.5C67.1275 7.65885 67.1678 7.83073 67.1678 8.01562H66.4452C66.4452 7.92448 66.4217 7.83594 66.3749 7.75C66.328 7.66146 66.2629 7.58333 66.1796 7.51562C66.0962 7.44792 65.9947 7.39323 65.8749 7.35156C65.7577 7.3099 65.6249 7.28906 65.4764 7.28906C65.3228 7.28906 65.1874 7.30599 65.0702 7.33984C64.9556 7.3737 64.8605 7.41927 64.785 7.47656C64.7069 7.53385 64.6483 7.60026 64.6092 7.67578C64.5702 7.7513 64.5506 7.82943 64.5506 7.91016C64.5506 7.99349 64.5663 8.06771 64.5975 8.13281C64.6288 8.19792 64.6835 8.25651 64.7616 8.30859C64.8371 8.36068 64.9387 8.40755 65.0663 8.44922C65.1965 8.49089 65.3605 8.53125 65.5585 8.57031C65.8189 8.625 66.0519 8.6888 66.2577 8.76172C66.4634 8.83203 66.6366 8.91667 66.7772 9.01562C66.9178 9.11719 67.0246 9.23438 67.0975 9.36719C67.173 9.5 67.2108 9.65365 67.2108 9.82812C67.2108 10.0156 67.1678 10.1862 67.0819 10.3398C66.9986 10.4935 66.8814 10.625 66.7303 10.7344C66.5793 10.8438 66.3983 10.9284 66.1874 10.9883C65.9764 11.0482 65.746 11.0781 65.496 11.0781C65.2095 11.0781 64.9543 11.0404 64.7303 10.9648C64.5064 10.8867 64.3176 10.7839 64.1639 10.6562C64.0077 10.5312 63.8879 10.3854 63.8045 10.2188C63.7238 10.0521 63.6835 9.87891 63.6835 9.69922H64.4061C64.4165 9.84766 64.4556 9.97266 64.5233 10.0742C64.5936 10.1758 64.6809 10.2578 64.785 10.3203C64.8866 10.3828 64.9999 10.4271 65.1249 10.4531C65.2499 10.4792 65.3736 10.4922 65.496 10.4922C65.6887 10.4922 65.8566 10.4701 65.9999 10.4258C66.1431 10.3789 66.2551 10.3151 66.3358 10.2344C66.3853 10.1849 66.423 10.1302 66.4491 10.0703C66.4751 10.0104 66.4881 9.94661 66.4881 9.87891C66.4881 9.79297 66.4712 9.71615 66.4374 9.64844C66.4035 9.57812 66.3462 9.51432 66.2655 9.45703C66.1848 9.39974 66.078 9.34766 65.9452 9.30078C65.8124 9.2513 65.647 9.20703 65.4491 9.16797C65.2069 9.11849 64.9855 9.05859 64.785 8.98828C64.5871 8.91797 64.4178 8.83333 64.2772 8.73438C64.134 8.63802 64.0233 8.52474 63.9452 8.39453C63.867 8.26172 63.828 8.10807 63.828 7.93359C63.828 7.76172 63.8683 7.60156 63.9491 7.45312C64.0298 7.30208 64.1431 7.17057 64.2889 7.05859C64.4348 6.94661 64.6079 6.85807 64.8085 6.79297C65.0116 6.72786 65.2342 6.69531 65.4764 6.69531Z" fill="black"/>
<path d="M70.1952 6.77344H71.8046V7.33203H70.1952V9.62891C70.1952 9.79297 70.216 9.92839 70.2577 10.0352C70.2993 10.1419 70.3566 10.2266 70.4296 10.2891C70.5025 10.3542 70.5858 10.3997 70.6796 10.4258C70.7759 10.4518 70.8775 10.4648 70.9842 10.4648C71.0624 10.4648 71.1431 10.4609 71.2264 10.4531C71.3098 10.4427 71.3918 10.431 71.4725 10.418C71.5506 10.4049 71.6236 10.3919 71.6913 10.3789C71.7616 10.3633 71.8189 10.3503 71.8631 10.3398L71.9647 10.8516C71.9048 10.888 71.8319 10.9206 71.746 10.9492C71.66 10.9753 71.5663 10.9974 71.4647 11.0156C71.3631 11.0365 71.2551 11.0521 71.1405 11.0625C71.0285 11.0729 70.9165 11.0781 70.8046 11.0781C70.6171 11.0781 70.4413 11.0521 70.2772 11C70.1157 10.9453 69.9751 10.8594 69.8553 10.7422C69.7355 10.6276 69.6405 10.4792 69.5702 10.2969C69.5025 10.112 69.4686 9.88932 69.4686 9.62891V7.33203H68.3592V6.77344H69.4686V5.75H70.1952V6.77344Z" fill="black"/>
<path d="M74.035 9.29297C74.035 9.52214 74.0532 9.71224 74.0897 9.86328C74.1262 10.0143 74.1809 10.1341 74.2538 10.2227C74.3267 10.3138 74.4152 10.3776 74.5194 10.4141C74.6262 10.4505 74.7486 10.4688 74.8866 10.4688C75.048 10.4688 75.1926 10.4505 75.3202 10.4141C75.4478 10.375 75.5585 10.3216 75.6522 10.2539C75.7303 10.1992 75.798 10.1341 75.8553 10.0586C75.9152 9.98047 75.9647 9.89583 76.0038 9.80469V6.77344H76.7303V11H76.0741L76.0311 10.418C75.8905 10.6263 75.7147 10.7891 75.5038 10.9062C75.2928 11.0208 75.0493 11.0781 74.7733 11.0781C74.5519 11.0781 74.3514 11.0443 74.1717 10.9766C73.9921 10.9062 73.8384 10.7982 73.7108 10.6523C73.5832 10.5065 73.4842 10.3216 73.4139 10.0977C73.3462 9.87109 73.3124 9.60026 73.3124 9.28516V6.77344H74.035V9.29297Z" fill="black"/>
<path fill-rule="evenodd" clip-rule="evenodd" d="M81.5233 11H80.8592L80.828 10.5547C80.6874 10.7266 80.5194 10.8568 80.3241 10.9453C80.1288 11.0339 79.9009 11.0781 79.6405 11.0781C79.3853 11.0781 79.1535 11.0234 78.9452 10.9141C78.7394 10.8047 78.5637 10.6536 78.4178 10.4609C78.272 10.2682 78.1587 10.0417 78.078 9.78125C77.9973 9.51823 77.9569 9.23568 77.9569 8.93359V8.85156C77.9569 8.53646 77.996 8.2474 78.0741 7.98438C78.1548 7.71875 78.2694 7.49089 78.4178 7.30078C78.5637 7.11068 78.7407 6.96224 78.9491 6.85547C79.1574 6.7487 79.3905 6.69531 79.6483 6.69531C79.9009 6.69531 80.121 6.73828 80.3085 6.82422C80.4986 6.90755 80.6626 7.02995 80.8006 7.19141V5H81.5233V11ZM79.828 7.30859C79.6249 7.30859 79.4504 7.35026 79.3046 7.43359C79.1613 7.51693 79.0441 7.62891 78.953 7.76953C78.8592 7.91276 78.7902 8.07812 78.746 8.26562C78.7017 8.45052 78.6796 8.64583 78.6796 8.85156V8.93359C78.6796 9.13932 78.7017 9.33464 78.746 9.51953C78.7902 9.70443 78.8592 9.86719 78.953 10.0078C79.0441 10.1484 79.1613 10.2604 79.3046 10.3438C79.4478 10.4245 79.6197 10.4648 79.8202 10.4648C80.0624 10.4648 80.2629 10.4102 80.4217 10.3008C80.5806 10.1914 80.7069 10.0443 80.8006 9.85938V7.89844C80.7069 7.72656 80.5806 7.58594 80.4217 7.47656C80.2629 7.36458 80.065 7.30859 79.828 7.30859Z" fill="black"/>
<path fill-rule="evenodd" clip-rule="evenodd" d="M89.4178 6.69531C89.7173 6.69531 89.9855 6.7513 90.2225 6.86328C90.4621 6.97266 90.6652 7.1237 90.8319 7.31641C90.996 7.50911 91.1223 7.73698 91.2108 8C91.2993 8.26042 91.3436 8.54297 91.3436 8.84766V8.93359C91.3436 9.23828 91.2993 9.52083 91.2108 9.78125C91.1223 10.0417 90.996 10.2682 90.8319 10.4609C90.6652 10.6536 90.4634 10.8047 90.2264 10.9141C89.9894 11.0234 89.7225 11.0781 89.4256 11.0781C89.1262 11.0781 88.8566 11.0234 88.6171 10.9141C88.3801 10.8047 88.1796 10.6536 88.0155 10.4609C87.8488 10.2682 87.7212 10.0417 87.6327 9.78125C87.5441 9.52083 87.4999 9.23828 87.4999 8.93359V8.84766C87.4999 8.54297 87.5441 8.26042 87.6327 8C87.7212 7.73698 87.8488 7.50911 88.0155 7.31641C88.1796 7.1237 88.3801 6.97266 88.6171 6.86328C88.854 6.7513 89.121 6.69531 89.4178 6.69531ZM89.4178 7.28906C89.2173 7.28906 89.0428 7.33203 88.8944 7.41797C88.746 7.5013 88.6223 7.61458 88.5233 7.75781C88.4217 7.90104 88.3462 8.06771 88.2967 8.25781C88.2473 8.44531 88.2225 8.64193 88.2225 8.84766V8.93359C88.2225 9.14193 88.2473 9.34115 88.2967 9.53125C88.3462 9.71875 88.4217 9.88411 88.5233 10.0273C88.6223 10.1706 88.7473 10.2839 88.8983 10.3672C89.0493 10.4505 89.2251 10.4922 89.4256 10.4922C89.6236 10.4922 89.7967 10.4505 89.9452 10.3672C90.0962 10.2839 90.2225 10.1706 90.3241 10.0273C90.423 9.88411 90.4973 9.71875 90.5467 9.53125C90.5962 9.34115 90.621 9.14193 90.621 8.93359V8.84766C90.621 8.64193 90.5949 8.44531 90.5428 8.25781C90.4934 8.06771 90.4191 7.90104 90.3202 7.75781C90.2186 7.61458 90.0923 7.5013 89.9413 7.41797C89.7928 7.33203 89.6184 7.28906 89.4178 7.28906Z" fill="black"/>
<path d="M85.1717 10.375H86.5506V11H83.0116V10.375H84.4491V7.40234H83.0116V6.77344H85.1717V10.375Z" fill="black"/>
<path d="M84.7889 5.23828C84.8566 5.23828 84.9165 5.2487 84.9686 5.26953C85.0207 5.28776 85.0637 5.3138 85.0975 5.34766C85.1392 5.38411 85.1704 5.42969 85.1913 5.48438C85.2121 5.53906 85.2225 5.59896 85.2225 5.66406C85.2225 5.78125 85.1861 5.87891 85.1131 5.95703C85.0402 6.03516 84.9322 6.07422 84.7889 6.07422C84.6431 6.07422 84.5337 6.03516 84.4608 5.95703C84.3905 5.87891 84.3553 5.78125 84.3553 5.66406C84.3553 5.60156 84.3644 5.54297 84.3827 5.48828C84.4035 5.43359 84.4348 5.38672 84.4764 5.34766C84.5103 5.3138 84.5532 5.28776 84.6053 5.26953C84.66 5.2487 84.7212 5.23828 84.7889 5.23828Z" fill="black"/>
</svg>
