<svg width="50" height="50" viewBox="0 0 50 50" fill="none" xmlns="http://www.w3.org/2000/svg">
<path fill-rule="evenodd" clip-rule="evenodd" d="M25 2C37.703 2 48 12.297 48 25C48 37.703 37.703 48 25 48C12.297 48 2 37.703 2 25C2 12.297 12.297 2 25 2ZM34.9355 16.0781C34.3576 15.8003 33.5016 15.9389 32.5088 16.2969C31.1457 16.7883 13.7345 24.1814 12.7285 24.6094C11.7749 25.0142 10.8733 25.456 10.873 26.0957C10.873 26.5457 11.1401 26.7985 11.876 27.0615C12.642 27.3345 14.571 27.9204 15.71 28.2344C16.8069 28.5373 18.0559 28.2738 18.7559 27.8389C19.4977 27.378 28.0577 21.6505 28.6758 21.1465C29.2897 20.6445 29.7801 21.2871 29.2783 21.79C28.7763 22.292 22.898 27.9971 22.123 28.7871C21.1821 29.7461 21.8505 30.7397 22.4814 31.1377C23.2031 31.5922 28.3869 35.0699 29.168 35.6279C29.9489 36.1859 30.7409 36.4394 31.4658 36.4395C32.1908 36.4395 32.5726 35.484 32.9336 34.375C33.3566 33.077 35.339 20.1408 35.584 17.5918C35.6579 16.8199 35.4135 16.3071 34.9355 16.0781Z" fill="black"/>
</svg>
