<svg width="50" height="50" viewBox="0 0 50 50" fill="none" xmlns="http://www.w3.org/2000/svg">
<path d="M21.5928 20.0938C30.2049 25.0567 30.2056 25.0563 30.2056 25.0563L21.5928 30.0198V20.0938Z" fill="black"/>
<path fill-rule="evenodd" clip-rule="evenodd" d="M25 2C37.7024 2 48 12.2976 48 25C48 37.7024 37.7024 48 25 48C12.2976 48 2 37.7024 2 25C2 12.2976 12.2976 2 25 2ZM24.8911 13.4765C24.8204 13.4765 14.5308 13.4794 11.9738 14.1204C10.5995 14.58 9.5 15.6826 9.13353 17.0611C8.40433 19.6214 8.40048 25.0016 8.40047 25.0563C8.40047 25.0563 8.40059 30.3872 9.13353 33.0524C9.50001 34.431 10.5996 35.5335 11.9738 35.9012C14.5307 36.6338 24.8204 36.637 24.8911 36.637C24.8911 36.637 35.2439 36.6364 37.8094 35.9012C39.1836 35.5335 40.2832 34.431 40.6497 33.0524C41.3826 30.3872 41.3827 25.0563 41.3827 25.0563C41.3827 25.0016 41.3788 19.6214 40.6497 17.0611C40.2832 15.6826 39.1836 14.58 37.8094 14.1204C35.2439 13.4771 24.8911 13.4765 24.8911 13.4765Z" fill="black"/>
</svg>
